<svg xmlns="http://www.w3.org/2000/svg" viewBox="0 0 800 600" role="img" aria-label="Tableau électrique KB Électricité Générale">
  <defs>
    <linearGradient id="bg" x1="0" y1="0" x2="1" y2="1">
      <stop offset="0" stop-color="#0f1b2d"/>
      <stop offset="1" stop-color="#16335e"/>
    </linearGradient>
  </defs>
  <rect width="800" height="600" fill="url(#bg)"/>
  <!-- trame discrète -->
  <g stroke="#3d88ff" stroke-width="1" opacity="0.10">
    <path d="M0 150H800M0 300H800M0 450H800M200 0V600M400 0V600M600 0V600"/>
  </g>
  <!-- armoire / tableau -->
  <g transform="translate(250 150)">
    <rect x="0" y="0" width="300" height="300" rx="10" fill="#0c1626" stroke="#3d88ff" stroke-width="1.5" opacity="0.95"/>
    <rect x="22" y="26" width="256" height="56" rx="5" fill="#11223c" stroke="#27406a"/>
    <rect x="22" y="98" width="256" height="56" rx="5" fill="#11223c" stroke="#27406a"/>
    <rect x="22" y="170" width="256" height="56" rx="5" fill="#11223c" stroke="#27406a"/>
    <!-- disjoncteurs -->
    <g fill="#cdddf5">
      <rect x="34" y="38" width="14" height="32" rx="2"/><rect x="54" y="38" width="14" height="32" rx="2"/>
      <rect x="74" y="38" width="14" height="32" rx="2"/><rect x="94" y="38" width="14" height="32" rx="2"/>
      <rect x="120" y="38" width="14" height="32" rx="2"/><rect x="140" y="38" width="14" height="32" rx="2"/>
      <rect x="34" y="110" width="14" height="32" rx="2"/><rect x="54" y="110" width="14" height="32" rx="2"/>
      <rect x="74" y="110" width="14" height="32" rx="2"/><rect x="100" y="110" width="14" height="32" rx="2"/>
      <rect x="120" y="110" width="14" height="32" rx="2"/>
      <rect x="34" y="182" width="14" height="32" rx="2"/><rect x="54" y="182" width="14" height="32" rx="2"/>
      <rect x="74" y="182" width="14" height="32" rx="2"/>
    </g>
    <!-- éclair KB -->
    <path d="M205 120l-34 52h22l-6 40 40-56h-23l9-36z" fill="#ff6a1a"/>
  </g>
  <!-- nœuds de circuit -->
  <circle cx="120" cy="150" r="5" fill="#3d88ff"/>
  <circle cx="680" cy="450" r="5" fill="#ff6a1a"/>
  <path d="M120 150H210" stroke="#3d88ff" stroke-width="1.5" opacity="0.5"/>
  <path d="M590 450H680" stroke="#ff6a1a" stroke-width="1.5" opacity="0.5"/>
</svg>
